<svg xmlns="http://www.w3.org/2000/svg" xmlns:xlink="http://www.w3.org/1999/xlink" version="1.1" x="0px" y="0px" viewBox="0 0 100 100" enable-background="new 0 0 100 100" xml:space="preserve"><path d="M50,5.001c-24.85,0-45,20.145-45,44.998c0,24.852,20.15,45,45,45c24.855,0,45-20.148,45-45C95,25.146,74.855,5.001,50,5.001  z M74.171,71.022l-3.654,3.664c-0.667,0.647-2.576,1.068-2.649,1.068c-11.582,0.102-22.738-4.462-30.949-12.672  c-8.235-8.225-12.811-19.435-12.667-31.068c0-0.01,0.419-1.861,1.053-2.513l3.69-3.666c1.319-1.345,3.921-1.97,5.717-1.353  l0.774,0.246c1.788,0.621,3.678,2.603,4.172,4.442l1.854,6.758c0.487,1.844-0.185,4.459-1.518,5.802l-2.44,2.45  c2.401,8.892,9.375,15.883,18.262,18.282l2.469-2.443c1.335-1.35,3.956-2.024,5.788-1.523l6.775,1.842  c1.837,0.508,3.807,2.381,4.408,4.194l0.27,0.781C76.122,67.108,75.526,69.682,74.171,71.022z"></path></svg>