<svg xmlns="http://www.w3.org/2000/svg" xmlns:xlink="http://www.w3.org/1999/xlink" viewBox="0 0 66 66" version="1.1" x="0px" y="0px"><title>03-icon-circle-employment</title><desc>Created with Sketch.</desc><g stroke="none" stroke-width="1" fill="none" fill-rule="evenodd"><g transform="translate(-334.000000, -220.000000)" fill-rule="nonzero" fill="#000000"><path d="M367,283 C383.568542,283 397,269.568542 397,253 C397,236.431458 383.568542,223 367,223 C350.431458,223 337,236.431458 337,253 C337,269.568542 350.431458,283 367,283 Z M357.21826,263.934576 L363.337915,257.814921 C364.587303,258.548012 366.220166,258.378523 367.292237,257.306452 C368.565625,256.033065 368.565625,253.968495 367.292237,252.695108 C366.018849,251.42172 363.95428,251.42172 362.680893,252.695108 C361.604265,253.771736 361.437908,255.413934 362.181822,256.665342 L356.065424,262.78174 L357.632892,250.91377 L367.819904,245.428456 L374.571544,252.180096 L369.08623,262.367108 L357.21826,263.934576 Z M367,286 C348.774603,286 334,271.225397 334,253 C334,234.774603 348.774603,220 367,220 C385.225397,220 400,234.774603 400,253 C400,271.225397 385.225397,286 367,286 Z M368.213358,242.747681 L355.623377,249.526902 L353.363636,266.636364 L370.473098,264.376623 L377.252319,251.786642 L368.213358,242.747681 Z M369.181818,241.779221 L378.220779,250.818182 L385,247.912801 L372.087199,235 L369.181818,241.779221 Z M349,269.363636 L349,271 L385,271 L385,269.363636 L349,269.363636 Z"></path></g></g></svg>