<svg xmlns="http://www.w3.org/2000/svg" viewBox="0 0 33.04 33.04"><defs><style>.cls-1{fill:#fff;}</style></defs><title>Icon-White-Menu-Support</title><g id="Layer_2" data-name="Layer 2"><g id="No-Circle-White_Settings_Support_Logout" data-name="No-Circle-White Settings Support Logout"><path class="cls-1" d="M16.52,0A16.52,16.52,0,1,0,33,16.52,16.52,16.52,0,0,0,16.52,0Zm2.23,26.39h-4v-4h4Zm4.73-12.72a16.56,16.56,0,0,1-3.23,3.25,6.17,6.17,0,0,0-1.59,1.71,5.74,5.74,0,0,0-.28,2.32H14.7q0-.79,0-1a6.42,6.42,0,0,1,.59-2.93,9,9,0,0,1,2.36-2.59,17.6,17.6,0,0,0,2.11-1.88A2.52,2.52,0,0,0,20.28,11a2.62,2.62,0,0,0-.94-2,3.67,3.67,0,0,0-2.54-.84A3.85,3.85,0,0,0,14.23,9a4.67,4.67,0,0,0-1.42,2.68l-3.71-.46a6.16,6.16,0,0,1,2.19-4.37,7.77,7.77,0,0,1,5.34-1.8A8.06,8.06,0,0,1,22.17,6.9a5.51,5.51,0,0,1,2.06,4.24A4.66,4.66,0,0,1,23.47,13.67Z"/></g></g></svg>