<svg xmlns="http://www.w3.org/2000/svg" viewBox="0 0 75 75.01"><defs><style>.cls-1{fill:#605c5b;}.cls-2{fill:#fff;}</style></defs><title>Icon-Circle-Home-01-Notifications</title><g id="Layer_2" data-name="Layer 2"><g id="Circle"><g id="IconHome01Notifications"><path class="cls-1" d="M37.5,0A37.5,37.5,0,1,0,75,37.5,37.5,37.5,0,0,0,37.5,0"/><path class="cls-2" d="M34.8,30.69a12.8,12.8,0,0,1,.43-3.22H23.89a4.11,4.11,0,0,0-4.11,4.11V47a4.11,4.11,0,0,0,4.11,4.11h2L27,56.25l9.07-5.14H48.57A4.11,4.11,0,0,0,52.68,47V42.43A12.79,12.79,0,0,1,34.8,30.69"/><path class="cls-2" d="M47.6,20.74a9.94,9.94,0,1,0,9.94,9.94,10,10,0,0,0-9.94-9.94m1.55,14.62H46V32.9h3.17Zm.15-7.52-1,4.54H46.79l-1-4.54V25.79h3.47Z"/></g></g></g></svg>