<svg xmlns="http://www.w3.org/2000/svg" viewBox="0 0 48 46.04"><title>Icon-Black-Home-06-Life-Events</title><g id="Layer_2" data-name="Layer 2"><g id="No-Circle-Black"><g id="_006" data-name="006"><path d="M27.22,5.78C27.22,2.59,24.07,0,24.07,0s-3.15,2.59-3.15,5.78c0,2.32.74,4.31,1.81,5.23.3-2.09.67-3.66,1.37-3.66s1,2.71,1.06,3.85c1.2-.82,2.05-2.93,2.05-5.42"/><rect x="22.24" y="11.78" width="4.01" height="9.33"/><path d="M45.76,43.67V26.07a6.14,6.14,0,0,0-6.12-6.12H8.33a6.14,6.14,0,0,0-6.12,6.12v17.6H0V46H48V43.67Zm-41.2-13C5.65,31.76,6.9,33.41,8.5,33.3s4.17-3.54,6.31-4.39,3.39,4.16,5.79,4.4c3.38.34,5.59-4.69,7.53-4.75s3.82,4.86,5.53,4.88,4.51-4.76,5.94-4.87,3.31,1.51,3.71,2.44v6.29H4.56Zm0,8.74H43.32v4.27H4.56Z"/></g></g></g></svg>