<svg xmlns="http://www.w3.org/2000/svg" viewBox="0 0 48 45.12"><title>Icon-Black-Home-01-Notifications</title><g id="Layer_2" data-name="Layer 2"><g id="No-Circle-Black"><g id="_001" data-name="001"><path d="M19.09,12.64a16.21,16.21,0,0,1,.54-4.1H5.23A5.23,5.23,0,0,0,0,13.77v19.6a5.23,5.23,0,0,0,5.23,5.23H7.76l1.48,6.53,11.53-6.53H36.59a5.22,5.22,0,0,0,5.23-5.23v-5.8a16.16,16.16,0,0,1-6.45,1.34A16.29,16.29,0,0,1,19.09,12.64"/><path d="M35.36,0A12.64,12.64,0,1,0,48,12.64,12.65,12.65,0,0,0,35.36,0m2,18.59h-4V15.46h4ZM37.53,9,36.31,14.8h-2L33.11,9V6.42h4.42Z"/></g></g></g></svg>