<svg xmlns="http://www.w3.org/2000/svg" viewBox="0 0 35.92 35.92"><defs><style>.cls-1{fill:none;stroke-width:4px;}.cls-1,.cls-2{stroke:#fff;stroke-miterlimit:10;}.cls-2{fill:#fff;}</style></defs><title>Icon-White-Menu-Settings</title><g id="Layer_2" data-name="Layer 2"><g id="No-Circle-White_Settings_Support_Logout" data-name="No-Circle-White Settings Support Logout"><circle class="cls-1" cx="17.96" cy="17.92" r="12.35"/><polygon class="cls-2" points="22.16 4.16 13.75 4.16 14.54 0.5 21.37 0.5 22.16 4.16"/><polygon class="cls-2" points="21.37 35.42 14.54 35.42 13.75 31.76 22.16 31.76 21.37 35.42"/><polygon class="cls-2" points="30.69 11.17 24.74 5.23 27.89 3.2 32.72 8.03 30.69 11.17"/><polygon class="cls-2" points="8.03 32.72 3.2 27.89 5.23 24.74 11.17 30.69 8.03 32.72"/><polygon class="cls-2" points="11.17 5.23 5.23 11.17 3.2 8.03 8.03 3.2 11.17 5.23"/><polygon class="cls-2" points="32.72 27.89 27.89 32.72 24.74 30.69 30.69 24.74 32.72 27.89"/><polygon class="cls-2" points="4.16 13.75 4.16 22.16 0.5 21.37 0.5 14.54 4.16 13.75"/><polygon class="cls-2" points="35.42 14.54 35.42 21.37 31.76 22.16 31.76 13.75 35.42 14.54"/></g></g></svg>