<svg xmlns="http://www.w3.org/2000/svg" viewBox="0 0 75 75.01"><defs><style>.cls-1{fill:#605c5b;}.cls-2{fill:#fff;}</style></defs><title>Icon-Circle-Home-06-Life-Events</title><g id="Layer_2" data-name="Layer 2"><g id="Circle"><g id="IconHome06LifeEvents"><path class="cls-1" d="M37.5,0A37.5,37.5,0,1,0,75,37.5,37.5,37.5,0,0,0,37.5,0"/><path class="cls-2" d="M40,21.13c0-2.48-2.44-4.48-2.44-4.48s-2.44,2-2.44,4.48a5.53,5.53,0,0,0,1.4,4.05c.23-1.62.52-2.84,1.06-2.84s.77,2.1.83,3c.93-.63,1.59-2.27,1.59-4.2"/><rect class="cls-2" x="36.12" y="25.77" width="3.11" height="7.23"/><path class="cls-2" d="M54.35,50.49V36.85A4.76,4.76,0,0,0,49.6,32.1H25.34a4.76,4.76,0,0,0-4.74,4.74V50.49H18.88v1.84h37.2V50.49ZM22.42,40.41c.84.85,1.81,2.13,3.05,2s3.24-2.74,4.89-3.41,2.62,3.23,4.49,3.41c2.62.26,4.34-3.64,5.84-3.68s3,3.76,4.29,3.78,3.5-3.69,4.6-3.78a3.75,3.75,0,0,1,2.87,1.89v4.88h-30Zm0,6.77h30v3.31h-30Z"/></g></g></g></svg>