<svg xmlns:dc="http://purl.org/dc/elements/1.1/" xmlns:cc="http://creativecommons.org/ns#" xmlns:rdf="http://www.w3.org/1999/02/22-rdf-syntax-ns#" xmlns:svg="http://www.w3.org/2000/svg" xmlns="http://www.w3.org/2000/svg" xmlns:sodipodi="http://sodipodi.sourceforge.net/DTD/sodipodi-0.dtd" xmlns:inkscape="http://www.inkscape.org/namespaces/inkscape" viewBox="0 0 100 100" version="1.1" x="0px" y="0px"><g transform="translate(0,-952.36216)"><path style="opacity:1;fill:#000000;fill-opacity:1;stroke:none;stroke-width:16;stroke-linecap:butt;stroke-linejoin:miter;stroke-miterlimit:4;stroke-dasharray:none;stroke-dashoffset:0;stroke-opacity:1" d="M 50 5 A 45 45 0 0 0 5 50 A 45 45 0 0 0 50 95 A 45 45 0 0 0 95 50 A 45 45 0 0 0 50 5 z M 49.636719 28.248047 A 0.41573565 0.41573565 0 0 1 49.835938 28.291016 L 50.605469 28.675781 A 0.41573565 0.41573565 0 0 1 50.824219 29.150391 L 50.660156 29.800781 L 50.988281 30.126953 A 0.41573565 0.41573565 0 0 1 51.054688 30.628906 L 50.634766 31.365234 L 50.291016 32.345703 L 50.341797 33.085938 A 0.41573565 0.41573565 0 0 1 50.328125 33.21875 L 50.072266 34.201172 L 50.394531 34.314453 A 0.41573565 0.41573565 0 0 1 50.623047 34.900391 L 50.128906 35.833984 A 0.41573565 0.41573565 0 0 1 49.501953 35.964844 L 48.919922 35.5 L 47.912109 36.201172 A 0.41573565 0.41573565 0 0 1 47.279297 35.728516 L 47.601562 34.761719 L 47.761719 34.015625 A 0.41573565 0.41573565 0 0 1 47.810547 33.890625 L 48.244141 33.152344 L 47.851562 32.365234 A 0.41573565 0.41573565 0 0 1 47.851562 31.994141 L 48.191406 31.3125 C 48.026164 31.39269 47.832031 31.492188 47.832031 31.492188 A 0.41573565 0.41573565 0 0 1 47.421875 31.501953 L 46.707031 31.117188 A 0.41573565 0.41573565 0 0 1 46.492188 30.705078 L 46.601562 29.716797 A 0.41573565 0.41573565 0 0 1 47.072266 29.351562 L 47.261719 29.378906 A 0.41573565 0.41573565 0 0 1 47.478516 28.957031 L 48.302734 28.517578 A 0.41573565 0.41573565 0 0 1 48.419922 28.476562 L 49.574219 28.257812 A 0.41573565 0.41573565 0 0 1 49.636719 28.25 L 49.636719 28.248047 z M 45.328125 30.720703 A 0.41573565 0.41573565 0 0 1 45.628906 30.835938 L 46.828125 31.980469 L 47.476562 32.519531 A 0.41573565 0.41573565 0 0 1 47.556641 33.070312 L 46.787109 34.222656 A 0.41573565 0.41573565 0 0 1 46.255859 34.365234 L 45.816406 34.144531 A 0.41573565 0.41573565 0 0 1 45.677734 34.035156 L 44.525391 32.605469 A 0.41573565 0.41573565 0 0 1 44.464844 32.1875 L 44.958984 30.978516 A 0.41573565 0.41573565 0 0 1 45.328125 30.720703 z M 41.587891 33.783203 A 0.41573565 0.41573565 0 0 1 41.917969 33.931641 L 42.40625 34.515625 L 42.396484 34.460938 A 0.41573565 0.41573565 0 0 1 42.806641 33.974609 L 43.164062 33.974609 A 0.41573565 0.41573565 0 0 1 43.576172 34.339844 L 43.607422 34.59375 A 0.41573565 0.41573565 0 0 1 44.054688 34.757812 L 44.302734 35.115234 A 0.41573565 0.41573565 0 0 1 44.363281 35.457031 L 44.169922 36.199219 A 0.41573565 0.41573565 0 0 1 43.814453 36.507812 L 42.761719 36.623047 L 41.826172 37.013672 A 0.41573565 0.41573565 0 0 1 41.398438 36.947266 L 40.876953 36.507812 A 0.41573565 0.41573565 0 0 1 40.796875 35.964844 A 0.41573565 0.41573565 0 0 1 40.636719 35.8125 L 40.308594 35.263672 A 0.41573565 0.41573565 0 0 1 40.384766 34.742188 L 41.318359 33.890625 A 0.41573565 0.41573565 0 0 1 41.587891 33.783203 z M 38.861328 34.882812 A 0.41573565 0.41573565 0 0 1 38.900391 34.882812 A 0.41573565 0.41573565 0 0 1 39.289062 35.201172 L 39.416016 35.738281 L 39.787109 35.660156 A 0.41573565 0.41573565 0 0 1 40.283203 35.994141 L 40.447266 36.927734 A 0.41573565 0.41573565 0 0 1 40.220703 37.373047 L 38.527344 38.193359 L 38.261719 38.683594 A 0.41573565 0.41573565 0 0 1 37.919922 38.898438 L 36.986328 38.953125 A 0.41573565 0.41573565 0 0 1 36.582031 38.708984 L 36.087891 37.609375 A 0.41573565 0.41573565 0 0 1 36.185547 37.132812 L 37.480469 35.9375 L 37.480469 35.351562 A 0.41573565 0.41573565 0 0 1 37.873047 34.935547 L 38.861328 34.882812 z M 50.076172 37.091797 L 50.076172 37.095703 A 0.41573565 0.41573565 0 0 1 50.117188 37.095703 L 51.820312 37.207031 A 0.41573565 0.41573565 0 0 1 52.199219 37.525391 L 52.371094 38.259766 L 53.75 38.876953 L 56.027344 39.527344 A 0.41573565 0.41573565 0 0 1 56.232422 39.660156 L 57.279297 40.90625 L 58.101562 40.998047 L 59.638672 41.162109 A 0.41573565 0.41573565 0 0 1 59.998047 41.478516 L 60.492188 43.566406 A 0.41573565 0.41573565 0 0 1 59.951172 44.054688 L 58.535156 43.558594 L 59.035156 43.853516 A 0.41573565 0.41573565 0 0 1 59.048828 43.863281 L 60.257812 44.632812 A 0.41573565 0.41573565 0 0 1 60.429688 44.857422 L 60.814453 46.064453 A 0.41573565 0.41573565 0 0 1 60.367188 46.603516 L 60.625 46.912109 A 0.41573565 0.41573565 0 0 1 60.333984 47.595703 L 58.632812 47.705078 A 0.41573565 0.41573565 0 0 1 58.408203 47.65625 L 57.089844 46.943359 A 0.41573565 0.41573565 0 0 1 57.066406 46.927734 L 56.326172 46.466797 L 54.453125 46.818359 A 0.41573565 0.41573565 0 0 1 54.275391 46.808594 L 53.833984 46.699219 A 0.41573565 0.41573565 0 0 1 53.677734 45.972656 L 54.5 45.3125 A 0.41573565 0.41573565 0 0 1 54.605469 45.25 L 55.316406 44.966797 L 55.048828 44.753906 A 0.41573565 0.41573565 0 0 1 54.904297 44.335938 L 55.042969 43.734375 L 54.640625 42.529297 L 53.316406 41.890625 A 0.41573565 0.41573565 0 0 1 53.257812 41.857422 L 51.994141 40.966797 L 51.291016 41.380859 A 0.41573565 0.41573565 0 0 1 51.158203 41.431641 L 49.730469 41.705078 A 0.41573565 0.41573565 0 0 1 49.652344 41.714844 L 49.046875 41.714844 A 0.41573565 0.41573565 0 0 1 48.810547 41.640625 L 48.095703 41.146484 A 0.41573565 0.41573565 0 0 1 47.996094 41.048828 L 47.556641 40.443359 A 0.41573565 0.41573565 0 0 1 47.478516 40.201172 L 47.478516 38.662109 A 0.41573565 0.41573565 0 0 1 47.535156 38.451172 L 48.083984 37.517578 A 0.41573565 0.41573565 0 0 1 48.703125 37.404297 L 49.287109 37.871094 L 49.761719 37.255859 A 0.41573565 0.41573565 0 0 1 50.076172 37.091797 z M 39.929688 37.916016 A 0.41573565 0.41573565 0 0 1 40.197266 38.015625 L 40.863281 38.580078 L 41.054688 38.662109 A 0.41573565 0.41573565 0 0 1 41.830078 38.517578 A 0.41573565 0.41573565 0 0 1 42.234375 38.191406 L 42.619141 38.191406 A 0.41573565 0.41573565 0 0 1 43.009766 38.464844 L 43.230469 39.070312 A 0.41573565 0.41573565 0 0 1 43.255859 39.197266 L 43.302734 40.583984 L 44.232422 41.234375 A 0.41573565 0.41573565 0 0 1 44.386719 41.443359 L 44.552734 41.9375 A 0.41573565 0.41573565 0 0 1 44.265625 42.46875 C 44.264125 42.46995 44.255211 42.476188 44.238281 42.492188 C 44.18798 42.539088 44.112892 42.621984 44.044922 42.708984 C 43.908985 42.881984 43.792969 43.0625 43.792969 43.0625 A 0.41573565 0.41573565 0 0 1 43.472656 43.251953 L 42.648438 43.306641 A 0.41573565 0.41573565 0 0 1 42.292969 43.146484 L 42.111328 42.916016 L 41.369141 43.267578 A 0.41573565 0.41573565 0 0 1 41.210938 43.308594 L 39.947266 43.363281 A 0.41573565 0.41573565 0 0 1 39.564453 43.146484 L 39.285156 42.634766 L 38.605469 42.199219 A 0.41573565 0.41573565 0 0 1 38.435547 41.980469 L 38.216797 41.320312 A 0.41573565 0.41573565 0 0 1 38.636719 40.775391 L 38.992188 40.796875 L 38.394531 40.722656 A 0.41573565 0.41573565 0 0 1 38.113281 40.060547 L 38.443359 39.621094 A 0.41573565 0.41573565 0 0 1 38.554688 39.519531 A 0.41573565 0.41573565 0 0 1 38.607422 38.957031 L 39.650391 38.023438 A 0.41573565 0.41573565 0 0 1 39.929688 37.916016 z M 30.707031 38.597656 A 0.41573565 0.41573565 0 0 1 31.058594 38.787109 L 31.865234 40.029297 L 32.154297 39.884766 A 0.41573565 0.41573565 0 0 1 32.503906 39.873047 L 33.523438 40.310547 L 35.003906 40.384766 A 0.41573565 0.41573565 0 0 1 35.353516 40.615234 L 35.767578 41.439453 L 36.716797 41.320312 A 0.41573565 0.41573565 0 0 1 37.111328 41.498047 L 38.023438 42.830078 L 38.707031 42.955078 A 0.41573565 0.41573565 0 0 1 38.980469 43.132812 L 39.291016 43.599609 A 0.41573565 0.41573565 0 0 1 39.185547 44.167969 L 39.175781 44.177734 L 40.90625 44.59375 A 0.41573565 0.41573565 0 0 1 41.154297 44.767578 L 41.275391 44.947266 L 41.394531 44.767578 A 0.41573565 0.41573565 0 0 1 41.412109 44.744141 L 41.957031 44.042969 A 0.41573565 0.41573565 0 0 1 42.546875 43.974609 L 43.71875 44.927734 L 44.222656 45.052734 L 44.390625 44.673828 A 0.41573565 0.41573565 0 0 1 44.597656 44.464844 L 45.453125 44.074219 A 0.41573565 0.41573565 0 0 1 45.974609 44.228516 L 46.375 44.851562 L 46.375 43.8125 L 45.599609 42.757812 A 0.41573565 0.41573565 0 0 1 45.533203 42.410156 L 45.84375 41.167969 A 0.41573565 0.41573565 0 0 1 46.496094 40.9375 L 47.427734 41.634766 A 0.41573565 0.41573565 0 0 1 47.570312 41.824219 L 48.310547 43.84375 L 48.603516 43.808594 A 0.41573565 0.41573565 0 0 1 48.992188 43.976562 L 49.482422 44.652344 L 49.482422 44.53125 L 49.482422 42.900391 A 0.41573565 0.41573565 0 0 1 49.933594 42.486328 L 50.865234 42.564453 A 0.41573565 0.41573565 0 0 1 51.140625 42.701172 L 52.382812 44.101562 A 0.41573565 0.41573565 0 0 1 52.482422 44.445312 L 52.25 45.84375 A 0.41573565 0.41573565 0 0 1 51.935547 46.179688 L 50.816406 46.443359 L 50.386719 47.425781 L 50.3125 48.826172 A 0.41573565 0.41573565 0 0 1 50 49.208984 L 49.353516 49.369141 L 49.302734 49.966797 A 0.41573565 0.41573565 0 0 1 49.181641 50.224609 L 48.521484 50.884766 L 47.912109 51.496094 L 47.859375 51.761719 A 0.41573565 0.41573565 0 0 1 47.837891 51.826172 L 47.396484 52.96875 L 47.333984 54.259766 L 47.902344 54.292969 A 0.41573565 0.41573565 0 0 1 48.273438 54.578125 L 48.710938 55.925781 L 49.21875 55.689453 A 0.41573565 0.41573565 0 0 1 49.582031 55.701172 L 53.023438 57.458984 L 54.396484 57.158203 A 0.41573565 0.41573565 0 0 1 54.894531 57.496094 L 55.251953 59.580078 L 56.707031 60.634766 A 0.41573565 0.41573565 0 0 1 56.841797 60.800781 L 56.990234 61.128906 L 57.132812 60.845703 L 57.375 60.316406 L 56.671875 58.859375 L 55.904297 58.142578 A 0.41573565 0.41573565 0 0 1 55.9375 57.507812 L 57.109375 56.628906 L 57.146484 56.228516 L 57.146484 55.359375 L 56.552734 54.216797 L 55.822266 53.945312 A 0.41573565 0.41573565 0 0 1 55.552734 53.521484 L 55.65625 52.191406 L 55.466797 51.695312 L 55.314453 51.603516 A 0.41573565 0.41573565 0 0 1 55.115234 51.222656 L 55.160156 50.5 L 54.871094 50.128906 A 0.41573565 0.41573565 0 0 1 54.789062 49.816406 L 54.841797 49.431641 A 0.41573565 0.41573565 0 0 1 55.302734 49.076172 L 56.267578 49.1875 L 56.267578 49.050781 A 0.41573565 0.41573565 0 0 1 56.853516 48.671875 L 57.8125 49.103516 L 58.052734 49.037109 A 0.41573565 0.41573565 0 0 1 58.544922 49.267578 L 58.644531 49.488281 L 59.5 49.408203 A 0.41573565 0.41573565 0 0 1 59.919922 49.654297 L 60.439453 50.847656 L 60.976562 51.384766 L 61.171875 51.554688 L 61.664062 51.238281 L 61.855469 51.09375 L 61.625 50.363281 L 61.363281 49.841797 A 0.41573565 0.41573565 0 0 1 61.572266 49.275391 L 61.957031 49.109375 A 0.41573565 0.41573565 0 0 1 62.287109 49.109375 L 63.548828 49.658203 A 0.41573565 0.41573565 0 0 1 63.720703 49.796875 L 64.435547 50.785156 A 0.41573565 0.41573565 0 0 1 64.513672 51.029297 L 64.513672 51.142578 L 65.019531 51.056641 A 0.41573565 0.41573565 0 0 1 65.503906 51.46875 L 65.503906 51.943359 L 65.837891 52.246094 L 66.316406 52.207031 A 0.41573565 0.41573565 0 0 1 66.707031 52.408203 L 66.847656 52.642578 L 67.5 52.351562 A 0.41573565 0.41573565 0 0 1 67.732422 52.320312 L 68.445312 52.429688 A 0.41573565 0.41573565 0 0 1 68.771484 52.986328 A 0.41573565 0.41573565 0 0 1 68.867188 53.068359 L 68.96875 53.191406 L 69.476562 53.044922 A 0.41573565 0.41573565 0 0 1 69.925781 53.197266 L 70.679688 54.212891 A 0.41573565 0.41573565 0 0 1 70.695312 54.689453 L 70.041016 55.6875 L 69.726562 57.472656 A 0.41573565 0.41573565 0 0 1 69.513672 57.765625 L 65.960938 59.675781 L 65.550781 60.615234 A 0.41573565 0.41573565 0 0 1 65.447266 60.757812 L 64.21875 61.867188 L 64.345703 62.267578 L 65.148438 61.314453 L 66.076172 60.111328 A 0.41573565 0.41573565 0 0 1 66.21875 59.994141 L 66.988281 59.609375 A 0.41573565 0.41573565 0 0 1 67.490234 59.710938 L 68.148438 60.480469 A 0.41573565 0.41573565 0 0 1 68.099609 61.070312 L 67.646484 61.447266 L 67.691406 61.615234 L 68.583984 62.0625 L 69.460938 62.292969 L 70.548828 61.898438 A 0.41573565 0.41573565 0 0 1 70.949219 61.962891 L 71.498047 62.404297 A 0.41573565 0.41573565 0 0 1 71.560547 62.992188 L 70.335938 64.482422 L 69.589844 66.242188 A 0.41573565 0.41573565 0 0 1 68.988281 66.433594 L 68.275391 65.992188 A 0.41573565 0.41573565 0 0 1 68.105469 65.488281 L 68.527344 64.410156 L 67.763672 64.845703 A 0.41573565 0.41573565 0 0 1 67.509766 64.898438 L 66.576172 64.789062 A 0.41573565 0.41573565 0 0 1 66.21875 64.460938 L 66.041016 63.615234 L 65.759766 63.71875 L 65.253906 65.634766 A 0.41573565 0.41573565 0 0 1 65.023438 65.908203 L 62.646484 66.984375 L 62.03125 67.896484 A 0.41573565 0.41573565 0 0 1 61.884766 68.029297 L 61.384766 68.300781 L 61.384766 68.595703 A 0.41573565 0.41573565 0 0 1 61.039062 69.005859 L 59.839844 69.216797 A 0.41573565 0.41573565 0 0 1 59.984375 69.416016 L 60.080078 69.707031 A 0.41573565 0.41573565 0 0 1 59.951172 70.160156 L 59.519531 70.517578 A 0.41573565 0.41573565 0 0 1 59.423828 70.785156 L 59.228516 71.019531 A 0.41573565 0.41573565 0 0 1 58.910156 71.167969 L 58.048828 71.167969 L 57.136719 71.695312 A 0.41573565 0.41573565 0 0 1 56.658203 71.019531 L 56.738281 70.951172 L 56.640625 70.537109 A 0.41573565 0.41573565 0 0 1 56.761719 70.136719 L 57.197266 69.732422 L 57.322266 68.822266 L 57.181641 68.115234 A 0.41573565 0.41573565 0 0 1 57.726562 67.640625 L 57.603516 67.513672 L 55.40625 67.478516 A 0.41573565 0.41573565 0 0 1 55.263672 67.453125 L 54.759766 67.259766 A 0.41573565 0.41573565 0 0 1 54.507812 66.984375 L 54.207031 65.925781 L 53.705078 65.925781 A 0.41573565 0.41573565 0 0 1 53.369141 65.755859 L 53.076172 65.355469 L 52.052734 65.408203 L 51.582031 66.255859 A 0.41573565 0.41573565 0 0 1 51.136719 66.460938 L 48.806641 65.996094 A 0.41573565 0.41573565 0 0 1 48.710938 65.964844 A 0.41573565 0.41573565 0 0 1 48.511719 66.070312 L 47.8125 66.226562 A 0.41573565 0.41573565 0 0 1 47.394531 66.074219 L 47.005859 65.570312 A 0.41573565 0.41573565 0 0 1 46.949219 65.472656 L 46.927734 65.490234 A 0.41573565 0.41573565 0 0 1 46.628906 65.613281 L 43.792969 65.574219 A 0.41573565 0.41573565 0 0 1 43.769531 65.574219 L 37.361328 65.109375 A 0.41573565 0.41573565 0 0 1 37.298828 65.099609 L 32.638672 64.048828 A 0.41573565 0.41573565 0 0 1 32.601562 64.039062 L 28.083984 62.572266 A 0.41573565 0.41573565 0 0 1 27.488281 63.042969 L 26.517578 62.537109 A 0.41573565 0.41573565 0 0 1 26.294922 62.191406 A 0.41573565 0.41573565 0 0 1 26.066406 61.888672 L 25.880859 60.818359 L 25.361328 59.703125 A 0.41573565 0.41573565 0 0 1 25.869141 59.132812 L 26.087891 59.205078 A 0.41573565 0.41573565 0 0 1 26.066406 59.136719 L 25.873047 58.087891 A 0.41573565 0.41573565 0 0 1 25.914062 57.818359 L 26.193359 57.287109 L 25.615234 56.322266 A 0.41573565 0.41573565 0 0 1 25.556641 56.107422 L 25.556641 55.097656 A 0.41573565 0.41573565 0 0 1 25.6875 54.792969 L 26.1875 54.330078 L 26.552734 53.710938 L 26.095703 52.662109 A 0.41573565 0.41573565 0 0 1 26.060547 52.482422 L 26.167969 49.240234 L 25.841797 49.058594 L 25.191406 49.244141 A 0.41573565 0.41573565 0 0 1 24.667969 48.773438 L 24.888672 47.513672 L 24.21875 47.152344 A 0.41573565 0.41573565 0 0 1 24.09375 46.523438 L 30.386719 38.755859 A 0.41573565 0.41573565 0 0 1 30.707031 38.601562 L 30.707031 38.597656 z M 71.601562 54.671875 A 0.41573565 0.41573565 0 0 1 71.900391 54.798828 L 72.560547 55.478516 A 0.41573565 0.41573565 0 0 1 72.675781 55.730469 L 72.693359 55.929688 L 72.775391 55.898438 A 0.41573565 0.41573565 0 0 1 73.302734 56.123047 A 0.41573565 0.41573565 0 0 1 73.966797 56.123047 L 73.865234 55.986328 L 74.179688 55.873047 A 0.41573565 0.41573565 0 0 1 74.732422 56.193359 L 74.804688 56.623047 A 0.41573565 0.41573565 0 0 1 75.128906 56.900391 L 75.150391 56.96875 L 75.474609 56.878906 A 0.41573565 0.41573565 0 0 1 75.988281 57.382812 L 75.685547 58.570312 A 0.41573565 0.41573565 0 0 1 74.951172 58.716797 L 74.9375 58.753906 A 0.41573565 0.41573565 0 0 1 74.634766 59.035156 L 74.169922 59.146484 A 0.41573565 0.41573565 0 0 1 73.882812 59.109375 A 0.41573565 0.41573565 0 0 1 73.505859 59.232422 L 73.435547 59.382812 A 0.41573565 0.41573565 0 0 1 73.128906 59.619141 L 72.318359 59.757812 L 72.033203 60.105469 A 0.41573565 0.41573565 0 0 1 71.482422 60.185547 L 71.316406 60.076172 A 0.41573565 0.41573565 0 0 1 71.142578 59.634766 L 71.244141 59.210938 A 0.41573565 0.41573565 0 0 1 70.865234 58.720703 L 71.021484 57.878906 L 71.021484 57.472656 L 70.720703 56.693359 A 0.41573565 0.41573565 0 0 1 70.691406 56.554688 L 70.664062 55.457031 A 0.41573565 0.41573565 0 0 1 70.845703 55.103516 L 71.367188 54.746094 A 0.41573565 0.41573565 0 0 1 71.601562 54.673828 L 71.601562 54.671875 z " transform="translate(0,952.36216)"></path></g></svg>