<svg xmlns="http://www.w3.org/2000/svg" xmlns:xlink="http://www.w3.org/1999/xlink" version="1.1" x="0px" y="0px" viewBox="0 0 100 100" enable-background="new 0 0 100 100" xml:space="preserve"><g><g><path fill="#000000" d="M50,95c-3.164,0-6.491-1.636-8.291-4.8l-3.6-6.109H20.491C11.927,84.036,5,77.109,5,68.6V20.491    C5,11.873,11.982,5,20.491,5h59.018c4.255,0,8.182,1.691,10.964,4.527C93.255,12.309,95,16.236,95,20.491V68.6    c-0.055,8.509-6.927,15.436-15.491,15.491H61.891L58.345,90.2C56.491,93.364,53.164,95,50,95z M41.873,76.182    c0.545,0.164,1.036,0.491,1.473,0.927c0.218,0.218,0.436,0.491,0.6,0.818l0.273,0.491l4.527,7.691H48.8    c0.273,0.491,0.655,0.655,1.2,0.709c0.545-0.055,0.927-0.218,1.255-0.709L56,77.927c0.055-0.055,0.109-0.164,0.164-0.218    c0.109-0.218,0.273-0.436,0.491-0.6c0.109-0.164,0.273-0.273,0.436-0.327c0.327-0.327,0.655-0.491,1.036-0.6    c0.164-0.109,0.382-0.164,0.6-0.164c0.273-0.055,0.545-0.109,0.818-0.109h19.964c4.036-0.055,7.309-3.327,7.309-7.309V20.491    c0-4.091-3.218-7.309-7.309-7.309H20.491c-4.036,0-7.309,3.218-7.309,7.309V68.6c0,1.964,0.818,3.764,2.127,5.127    c1.364,1.364,3.164,2.182,5.182,2.182h19.964c0.273,0,0.545,0.055,0.818,0.109C41.491,76.018,41.709,76.073,41.873,76.182z"></path></g></g></svg>