<svg xmlns="http://www.w3.org/2000/svg" xmlns:xlink="http://www.w3.org/1999/xlink" viewBox="0 0 34 34" version="1.1" x="0px" y="0px"><title>benefits-circle</title><desc>Created with Sketch.</desc><g stroke="none" stroke-width="1" fill="none" fill-rule="evenodd"><g fill="#000000"><path d="M17,2 C8.71572875,2 2,8.71572875 2,17 C2,25.2842712 8.71572875,32 17,32 C25.2842712,32 32,25.2842712 32,17 C32,8.71572875 25.2842712,2 17,2 Z M17,0 C26.3888407,0 34,7.61115925 34,17 C34,26.3888407 26.3888407,34 17,34 C7.61115925,34 0,26.3888407 0,17 C0,7.61115925 7.61115925,0 17,0 Z" fill-rule="nonzero"></path><rect x="16" y="12" width="10" height="2"></rect><rect x="16" y="20" width="10" height="2"></rect><rect x="10" y="10" width="2" height="6"></rect><rect x="10" y="18" width="2" height="6"></rect><rect x="8" y="12" width="6" height="2"></rect><rect x="8" y="20" width="6" height="2"></rect></g></g></svg>